<svg width="22" height="18" viewBox="0 0 22 18" fill="none" xmlns="http://www.w3.org/2000/svg">
<path d="M21.2143 0H0.785714C0.351116 0 0 0.351116 0 0.785714V16.5C0 16.9346 0.351116 17.2857 0.785714 17.2857H21.2143C21.6489 17.2857 22 16.9346 22 16.5V0.785714C22 0.351116 21.6489 0 21.2143 0ZM20.2321 2.72054V15.5179H1.76786V2.72054L1.09018 2.19263L2.05513 0.952679L3.10603 1.77031H18.8964L19.9473 0.952679L20.9123 2.19263L20.2321 2.72054ZM18.8964 1.76786L11 7.90625L3.10357 1.76786L2.05268 0.950223L1.08772 2.19018L1.7654 2.71808L10.1529 9.23951C10.3941 9.4269 10.6909 9.52863 10.9963 9.52863C11.3018 9.52863 11.5985 9.4269 11.8397 9.23951L20.2321 2.72054L20.9098 2.19263L19.9449 0.952679L18.8964 1.76786Z" fill="white"/>
</svg>
