<svg width="20" height="21" viewBox="0 0 20 21" fill="none" xmlns="http://www.w3.org/2000/svg">
<path fill-rule="evenodd" clip-rule="evenodd" d="M0 1.42212C0 1.03668 0.344815 0.724564 0.769754 0.724564H19.2302C19.6552 0.724564 20 1.03668 20 1.42212C20 1.80756 19.6552 2.11968 19.2302 2.11968H17.9483V20.027C17.9483 20.4124 17.6042 20.7246 17.1792 20.7246H2.82144C2.3965 20.7246 2.05239 20.4124 2.05239 20.027V2.11968H0.770413C0.345474 2.11968 0.0006595 1.80756 0.0006595 1.42212H0ZM3.58991 2.11968V19.3293H16.4097V2.11968H3.58991ZM6.15387 7.93374C6.15387 7.5483 6.49797 7.23619 6.9229 7.23619H13.0768C13.5017 7.23619 13.8458 7.5483 13.8458 7.93374C13.8458 8.31918 13.5017 8.6313 13.0768 8.6313H6.9229C6.49797 8.6313 6.15387 8.31918 6.15387 7.93374ZM6.15387 10.2594C6.15387 9.87393 6.49797 9.56182 6.9229 9.56182H13.0768C13.5017 9.56182 13.8458 9.87393 13.8458 10.2594C13.8458 10.6448 13.5017 10.9569 13.0768 10.9569H10.7688V14.9107C10.7688 15.2961 10.4247 15.6082 9.9998 15.6082C9.57486 15.6082 9.23076 15.2961 9.23076 14.9107V10.9569H6.92283C6.49789 10.9569 6.15379 10.6448 6.15379 10.2594H6.15387Z" fill="#FFF"/>
</svg>
