<svg width="21" height="22" viewBox="0 0 21 22" fill="none" xmlns="http://www.w3.org/2000/svg">
<path d="M16.3068 16.1423L14.6847 15.8144C14.331 15.2104 13.8737 14.408 13.6838 14.0887V14.0888C14.458 13.1075 15.006 11.9673 15.2887 10.7498C15.293 10.7153 15.293 10.6806 15.2887 10.6463V10.1804C16.0738 9.6109 16.2981 7.59205 16.3413 7.14334L16.3412 7.1432C16.3253 6.31523 16.1456 5.49855 15.8123 4.74036C15.4792 3.98217 14.9991 3.29738 14.3999 2.72568C13.4268 1.66609 12.0674 1.04399 10.6294 1H10.3361C10.293 1 5.66822 1.22428 4.78815 5.78855C4.39782 7.22881 4.75053 8.76884 5.72866 9.89556V10.5859C5.72492 10.6173 5.72492 10.6491 5.72866 10.6807C6.0096 11.956 6.60246 13.1419 7.45434 14.1319L6.21184 15.8145L4.67601 16.1337V16.1336C3.48974 16.3824 2.42583 17.0338 1.66476 17.9772C0.903691 18.9207 0.492179 20.0983 0.500113 21.3104C0.500113 21.5392 0.685478 21.7246 0.914245 21.7246H20.0858C20.1956 21.7246 20.301 21.681 20.3786 21.6033C20.4562 21.5256 20.4999 21.4203 20.4999 21.3104C20.5066 20.0969 20.0924 18.9187 19.3277 17.9763C18.5632 17.0339 17.4956 16.3857 16.3067 16.1423L16.3068 16.1423ZM9.15401 17.9369V17.937C8.2073 17.7165 7.40933 17.0832 6.97963 16.2113L8.05811 14.7101H8.05826C8.63065 15.1808 9.32453 15.4799 10.0599 15.5729L9.34386 17.9801H9.34372C9.28491 17.9505 9.21976 17.9357 9.15403 17.937L9.15401 17.9369ZM10.5258 16.962L11.9149 20.8447H9.37833L10.5258 16.962ZM10.94 15.6247C11.7228 15.5357 12.4601 15.2107 13.0538 14.6928C13.2694 15.0811 13.6233 15.6937 13.9166 16.1854C13.488 17.0546 12.6939 17.6872 11.751 17.9111L10.94 15.6247ZM5.60786 5.99554C5.8232 4.87857 6.40524 3.8654 7.26173 3.11673C8.11822 2.36806 9.20014 1.92669 10.336 1.86271H10.6206C11.8332 1.90681 12.9808 2.42038 13.8217 3.29503C14.8754 4.27591 15.4961 5.63532 15.5473 7.07399C15.5039 7.5103 15.4289 7.94288 15.323 8.36823V7.85063C15.3224 7.75593 15.2956 7.66325 15.2453 7.5831C15.0901 7.35882 14.8485 7.32423 14.184 7.22938H14.1841C12.9928 7.10758 11.8281 6.79898 10.7329 6.31481C9.7656 5.75108 8.97398 4.92961 8.44642 3.94208C8.37637 3.80615 8.23698 3.71981 8.08404 3.7178C7.93385 3.72169 7.79519 3.79909 7.71301 3.92478C6.97098 5.15866 5.75457 7.31559 5.75457 7.85061V8.44592C5.46931 7.6605 5.41843 6.80932 5.60783 5.99552L5.60786 5.99554ZM6.59147 7.9024C6.99896 6.89141 7.48948 5.91598 8.05826 4.98613C8.63741 5.85027 9.42342 6.55613 10.3446 7.03956C11.5183 7.5641 12.7675 7.89893 14.0461 8.03185L14.4689 8.09224V10.534C14.0375 12.2164 12.9676 14.8049 10.5257 14.8049C8.48955 14.8049 7.07453 12.6047 6.5914 10.5514L6.59147 7.9024ZM4.86579 16.9791L6.24623 16.6945V16.6943C6.798 17.7675 7.80165 18.5369 8.98132 18.791H9.11941L8.50679 20.8444H1.39721C1.48773 19.9066 1.87562 19.0225 2.50436 18.3209C3.13296 17.6192 3.96942 17.1371 4.89163 16.9445L4.86579 16.9791ZM12.8038 20.8444L12.0445 18.696C13.1587 18.408 14.0989 17.6621 14.6328 16.6426L16.1513 16.9445C17.0757 17.1341 17.9149 17.6154 18.5454 18.3174C19.176 19.0193 19.5648 19.9051 19.6544 20.8444L12.8038 20.8444Z" fill="black" stroke="black" stroke-width="0.5"/>
</svg>
