<svg width="215" height="44" viewBox="0 0 215 44" fill="none" xmlns="http://www.w3.org/2000/svg">
<path d="M24.9929 17.652H20.2116C20.0753 16.8679 19.8239 16.1733 19.4574 15.5682C19.0909 14.9545 18.6349 14.4347 18.0895 14.0085C17.544 13.5824 16.9219 13.2628 16.223 13.0497C15.5327 12.8281 14.7869 12.7173 13.9858 12.7173C12.5625 12.7173 11.3011 13.0753 10.2017 13.7912C9.10227 14.4986 8.24148 15.5384 7.61932 16.9105C6.99716 18.2741 6.68608 19.9403 6.68608 21.9091C6.68608 23.9119 6.99716 25.5994 7.61932 26.9716C8.25 28.3352 9.1108 29.3665 10.2017 30.0653C11.3011 30.7557 12.5582 31.1009 13.973 31.1009C14.7571 31.1009 15.4901 30.9986 16.1719 30.794C16.8622 30.581 17.4801 30.2699 18.0256 29.8608C18.5795 29.4517 19.044 28.9489 19.419 28.3523C19.8026 27.7557 20.0668 27.0739 20.2116 26.3068L24.9929 26.3324C24.8139 27.5767 24.4261 28.7443 23.8295 29.8352C23.2415 30.9261 22.4702 31.8892 21.5156 32.7244C20.5611 33.5511 19.4446 34.1989 18.1662 34.6676C16.8878 35.1278 15.4688 35.358 13.9091 35.358C11.608 35.358 9.55398 34.8253 7.74716 33.7599C5.94034 32.6946 4.51705 31.1562 3.47727 29.1449C2.4375 27.1335 1.91761 24.7216 1.91761 21.9091C1.91761 19.0881 2.44176 16.6761 3.49006 14.6733C4.53835 12.6619 5.96591 11.1236 7.77273 10.0582C9.57955 8.9929 11.625 8.46023 13.9091 8.46023C15.3665 8.46023 16.7216 8.66477 17.9744 9.07386C19.2273 9.48295 20.3438 10.0838 21.3239 10.8764C22.304 11.6605 23.1094 12.6236 23.7401 13.7656C24.3793 14.8991 24.7969 16.1946 24.9929 17.652ZM54.1712 21.9091C54.1712 24.7301 53.6428 27.1463 52.586 29.1577C51.5377 31.1605 50.1058 32.6946 48.2905 33.7599C46.4837 34.8253 44.434 35.358 42.1414 35.358C39.8487 35.358 37.7948 34.8253 35.9794 33.7599C34.1726 32.6861 32.7408 31.1477 31.684 29.1449C30.6357 27.1335 30.1115 24.7216 30.1115 21.9091C30.1115 19.0881 30.6357 16.6761 31.684 14.6733C32.7408 12.6619 34.1726 11.1236 35.9794 10.0582C37.7948 8.9929 39.8487 8.46023 42.1414 8.46023C44.434 8.46023 46.4837 8.9929 48.2905 10.0582C50.1058 11.1236 51.5377 12.6619 52.586 14.6733C53.6428 16.6761 54.1712 19.0881 54.1712 21.9091ZM49.4027 21.9091C49.4027 19.9233 49.0916 18.2486 48.4695 16.8849C47.8558 15.5128 47.0036 14.4773 45.9127 13.7784C44.8217 13.071 43.5646 12.7173 42.1414 12.7173C40.7181 12.7173 39.461 13.071 38.37 13.7784C37.2791 14.4773 36.4226 15.5128 35.8004 16.8849C35.1868 18.2486 34.88 19.9233 34.88 21.9091C34.88 23.8949 35.1868 25.5739 35.8004 26.946C36.4226 28.3097 37.2791 29.3452 38.37 30.0526C39.461 30.7514 40.7181 31.1009 42.1414 31.1009C43.5646 31.1009 44.8217 30.7514 45.9127 30.0526C47.0036 29.3452 47.8558 28.3097 48.4695 26.946C49.0916 25.5739 49.4027 23.8949 49.4027 21.9091ZM68.9674 35H60.0952V8.81818H69.1463C71.7458 8.81818 73.9787 9.34233 75.8452 10.3906C77.7202 11.4304 79.1605 12.9261 80.1662 14.8778C81.1719 16.8295 81.6747 19.1648 81.6747 21.8835C81.6747 24.6108 81.1676 26.9545 80.1534 28.9148C79.1478 30.875 77.6946 32.3793 75.7941 33.4276C73.902 34.4759 71.6265 35 68.9674 35ZM64.8381 30.8963H68.7372C70.5611 30.8963 72.0824 30.5639 73.3012 29.8991C74.5199 29.2259 75.4361 28.2244 76.0497 26.8949C76.6634 25.5568 76.9702 23.8864 76.9702 21.8835C76.9702 19.8807 76.6634 18.2187 76.0497 16.8977C75.4361 15.5682 74.5284 14.5753 73.3267 13.919C72.1336 13.2543 70.6506 12.9219 68.8779 12.9219H64.8381V30.8963ZM86.1811 35V8.81818H103.21V12.794H90.924V19.902H102.327V23.8778H90.924V31.0241H103.312V35H86.1811Z" fill="white"/>
<path d="M108.048 8.81818H113.852L121.625 27.7898H121.932L129.705 8.81818H135.509V35H130.957V17.0128H130.715L123.479 34.9233H120.078L112.842 16.9744H112.599V35H108.048V8.81818ZM164.068 21.9091C164.068 24.7301 163.54 27.1463 162.483 29.1577C161.435 31.1605 160.003 32.6946 158.188 33.7599C156.381 34.8253 154.331 35.358 152.038 35.358C149.746 35.358 147.692 34.8253 145.876 33.7599C144.07 32.6861 142.638 31.1477 141.581 29.1449C140.533 27.1335 140.009 24.7216 140.009 21.9091C140.009 19.0881 140.533 16.6761 141.581 14.6733C142.638 12.6619 144.07 11.1236 145.876 10.0582C147.692 8.9929 149.746 8.46023 152.038 8.46023C154.331 8.46023 156.381 8.9929 158.188 10.0582C160.003 11.1236 161.435 12.6619 162.483 14.6733C163.54 16.6761 164.068 19.0881 164.068 21.9091ZM159.3 21.9091C159.3 19.9233 158.989 18.2486 158.367 16.8849C157.753 15.5128 156.901 14.4773 155.81 13.7784C154.719 13.071 153.462 12.7173 152.038 12.7173C150.615 12.7173 149.358 13.071 148.267 13.7784C147.176 14.4773 146.32 15.5128 145.697 16.8849C145.084 18.2486 144.777 19.9233 144.777 21.9091C144.777 23.8949 145.084 25.5739 145.697 26.946C146.32 28.3097 147.176 29.3452 148.267 30.0526C149.358 30.7514 150.615 31.1009 152.038 31.1009C153.462 31.1009 154.719 30.7514 155.81 30.0526C156.901 29.3452 157.753 28.3097 158.367 26.946C158.989 25.5739 159.3 23.8949 159.3 21.9091ZM195.341 35V8.81818H212.37V12.794H200.084V19.902H211.488V23.8778H200.084V31.0241H212.472V35H195.341Z" fill="#8099E9"/>
<path d="M170 13L179 23L170 33" stroke="white" stroke-width="3.5" stroke-linecap="round" stroke-linejoin="round"/>
<path d="M179 13L189 23L179 33" stroke="white" stroke-width="3.5" stroke-linecap="round" stroke-linejoin="round"/>
</svg>
